<svg width="1200" height="630" viewBox="0 0 1200 630" xmlns="http://www.w3.org/2000/svg">
  <!-- Farbverläufe -->
  <defs>
    <radialGradient id="grad1" cx="30%" cy="100%" r="80%">
      <stop offset="0%" stop-color="#00FFE0" stop-opacity="0.5"></stop>
      <stop offset="100%" stop-color="transparent"></stop>
    </radialGradient>
    <radialGradient id="grad2" cx="80%" cy="20%" r="80%">
      <stop offset="0%" stop-color="#FF00E6" stop-opacity="0.4"></stop>
      <stop offset="100%" stop-color="transparent"></stop>
    </radialGradient>
    <radialGradient id="grad3" cx="10%" cy="30%" r="80%">
      <stop offset="0%" stop-color="#7F00FF" stop-opacity="0.4"></stop>
      <stop offset="100%" stop-color="transparent"></stop>
    </radialGradient>

    <clipPath id="mask">
      <rect x="20" y="20" width="1160" height="590" rx="24"></rect>
    </clipPath>
  </defs>

  <!-- Hintergrund mit Glow -->
  <g clip-path="url(#mask)">
    <rect width="1200" height="630" fill="black"></rect>
    <rect width="1200" height="630" fill="url(#grad1)"></rect>
    <rect width="1200" height="630" fill="url(#grad2)"></rect>
    <rect width="1200" height="630" fill="url(#grad3)"></rect>

    <!-- Partikel -->
    <circle r="3" fill="white" opacity="0.4">
      <animate attributeName="cy" values="630;0" dur="12s" repeatCount="indefinite"></animate>
      <animate attributeName="cx" values="200;1000" dur="12s" repeatCount="indefinite"></animate>
    </circle>
    <circle r="2" fill="white" opacity="0.3">
      <animate attributeName="cy" values="630;0" dur="18s" repeatCount="indefinite"></animate>
      <animate attributeName="cx" values="800;300" dur="18s" repeatCount="indefinite"></animate>
    </circle>
    <circle r="4" fill="white" opacity="0.5">
      <animate attributeName="cy" values="630;0" dur="25s" repeatCount="indefinite"></animate>
      <animate attributeName="cx" values="600;400" dur="25s" repeatCount="indefinite"></animate>
    </circle>

    <!-- Zelkulon-Schriftzug -->
    <g id="zelkulon-logo" transform="translate(200,200) scale(6)">
  <path d="m 70.707516,187.57995 c 0,1.016 4.191,6.096 5.334,6.985 0.254,0.254 1.143,1.016 1.397,1.397 0.127,0.127 0.254,0.508 0.508,0.889 0.635,0.889 0.889,1.905 1.524,2.667 0.254,0.381 0.508,0.508 0.635,0.508 v -0.127 h 0.127 c 1.524,-0.508 5.334,-3.175 5.334,-4.699 0,-2.032 2.032,-5.334 4.445,-5.334 1.905,0 4.191,1.524 6.223,2.667 1.143,0.635 2.032,1.27 3.048,1.778 0.889004,0.381 1.651004,0.762 2.286004,0.762 -0.254,-1.016 -1.778004,-2.032 -3.556004,-2.921 -0.762,-0.381 -3.81,-2.032 -3.81,-3.048 v -0.254 h 0.254 c 1.27,0 7.874004,4.191 14.732004,8.509 6.985,4.318 14.224,9.144 16.764,10.668 7.239,4.318 14.478,8.255 22.479,10.541 l -0.254,0.508 c -11.303,-3.175 -21.209,-9.525 -31.242,-15.494 -1.016,-0.635 -11.938,-6.858 -12.065,-6.858 0,0.254 0.254,0.635 0.508,1.016 0.254,0.508 0.762,0.635 1.016,0.889 8.255,8.255 17.907,12.573 28.194,18.415 2.921,1.651 5.842,3.048 9.017,4.191 3.175,1.143 6.477,2.032 9.652,3.175 3.556,1.27 6.223,1.651 10.033,1.651 4.572,0 6.604,-2.159 9.271,-5.461 0.508,-0.635 1.143,-1.143 1.778,-1.778 4.445,-4.445 9.779,-8.255 14.224,-12.7 1.27,-1.27 2.667,-3.175 3.81,-4.826 -0.127,0 -0.254,0 -0.254,0 h -0.127 l -0.127,-0.127 c -0.127,-0.254 -0.381,-0.381 -0.635,-0.381 -0.762,0 -1.778,0.635 -3.302,1.778 -6.477,4.826 -13.335,9.652 -21.844,9.652 -5.715,0 -10.541,-1.016 -16.129,-2.413 l 0.127,-0.508 c 4.826,1.143 9.779,1.778 14.732,1.778 1.016,0 4.699,0 5.715,-0.762 v -0.254 l -4.191,-0.254 c -12.827,-0.762 -22.479,-4.318 -34.163,-9.398 -5.969,-2.667 -12.065,-5.207 -17.526,-8.636 -1.016,-0.635 -5.842,-3.175 -10.287,-5.715 -4.445004,-2.54 -8.890004,-5.08 -8.890004,-5.969 0,-2.286 5.207004,-8.509 7.493004,-10.033 0.508,-0.381 0.762,-0.635 1.143,-1.016 0.254,-0.254 1.651,-1.778 2.921,-3.175 0.762,-0.889 1.651,-1.778 2.54,-2.54 0,-0.127 0.127,-0.127 0.254,-0.254 0.127,0 0.127,0 0.254,0 0.889,0 3.81,1.143 4.826,1.651 0.381,0.254 0.762,0.254 1.27,0.254 0,-0.635 -0.635,-1.397 -1.651,-2.159 -1.016,-0.762 -2.032,-1.27 -2.413,-1.524 l -1.143,-0.762 1.27,0.254 c 3.429,0.635 7.112,3.556 8.89,6.604 0.381,0.635 0.762,1.016 1.016,1.143 0.254,-0.127 1.524,-0.889 1.524,-1.016 0,-1.905 -1.143,-3.81 -2.413,-5.461 -1.397,-1.778 -3.048,-3.302 -4.191,-4.572 l -0.127,-0.127 0.127,-0.254 c 5.207,-5.461 10.668,-10.922 16.51,-15.621 l 1.397,-1.143 -1.016,1.524 c -0.254,0.254 -0.635,0.762 -1.016,1.27 -0.381,0.508 -0.635,1.143 -0.635,1.397 0.127,0.127 0.254,0.127 0.381,0.127 0.254,0 1.143,-0.381 1.397,-0.508 3.683,-1.905 6.223,-5.461 9.652,-7.747 5.08,-3.429 9.271,-5.334 15.367,-5.334 2.032,0 2.032,-1.651 2.032,-3.175 0,-0.635 0,-1.143 0.127,-1.778 l 0.127,-0.127 c 0.381,-0.254 0.508,-0.508 0.762,-0.889 0,-0.127 0.127,-0.381 0.254,-0.508 0,0 0.127,-0.127 0.127,-0.254 0,-0.381 -0.254,-1.27 -0.381,-1.27 v -0.127 c 0,-0.508 0.127,-1.016 -0.127,-1.651 -0.127,-0.381 -0.381,-1.27 -0.381,-1.651 0,-0.254 0.127,-0.508 0.127,-0.762 0,-0.127 0.127,-0.381 0.127,-0.508 0.127,-0.508 0.254,-0.889 0.254,-1.27 0,-1.27 -2.794,-5.207 -4.064,-5.588 v -0.127 h -0.127 c 0,-0.127 -0.127,-0.127 -0.127,-0.127 -0.127,0 -0.254,0 -0.254,0.127 l -0.127,0.127 h -0.127 c -0.889,-0.254 -2.794,0.381 -3.683,0.635 h -0.127 l -0.127,-0.127 c -0.127,-0.127 -0.254,-0.254 -0.508,-0.508 -0.381,-0.381 -1.143,-0.889 -1.651,-0.889 -1.397,0 -3.048,1.397 -3.683,2.667 -0.254,0.508 -0.508,1.016 -0.762,1.397 l -0.127,0.127 c -0.127,0 -0.381,0.127 -0.762,0.254 -0.254,0.127 -0.381,0.254 -0.508,0.254 -0.127,0 -0.127,0 -0.381,0.127 -3.556,0 -6.985,-0.508 -10.541,-0.508 h -7.239 c -0.508,0 -3.302,0.381 -3.429,0.635 2.159,1.143 7.874,1.524 10.414,1.524 v 0.508 c -6.35,0 -38.608004,-0.508 -44.069004,-3.048 -1.016,-0.508 -2.032,-1.016 -3.048,-1.524 l -0.762,-0.381 0.762,-0.127 c 0.127,0 0.762,-0.127 1.016,-0.254 h 0.127 c 2.159,0 4.318,0.254 6.35,0.254 0.254,0 0.889,-0.127 0.889,-0.381 0,-0.381 -0.889,-0.889 -1.27,-1.016 -0.762,-0.254 -1.651,-0.508 -2.032,-0.635 -0.381,-0.127 -4.064,-0.508 -4.445,-0.635 -0.381,-0.127 -3.81,-1.27 -4.064,-1.524 -0.762,-0.762 -2.032,-1.905 -3.175,-1.905 -1.397,0 -2.286,1.397 -2.54,2.794 l -0.889,5.334 c -0.254,1.778 0.762,3.556 2.286,5.207 0.762,0.762 1.524,1.651 2.159,2.286 0.762,0.762 1.397,1.397 1.905,2.159 0.127,0.127 0.127,0.127 0.127,0.254 0,0.127 0.127,0.381 0.254,0.635 0.127,0.508 0.254,0.889 0.254,1.016 0.762,2.159 2.413,2.54 4.572,2.54 l 0.381,-0.254 c 2.286,-1.524 12.573004,-3.048 15.367004,-3.175 6.096,-0.381 12.192,-0.381 18.161,-0.381 4.445,0 8.89,0.508 13.335,0.508 h 0.635 l -0.635,0.381 c -0.889,0.508 -1.651,1.143 -2.54,1.905 -7.112,6.096 -13.843,12.7 -20.066,19.558 -1.143,1.27 -2.413,2.54 -3.683,3.683 l -0.127,0.127 h -0.127 c -2.54,0 -8.128,-4.318 -9.398004,-6.731 0,0 -0.127,0 -0.254,-0.127 -2.159,0 -6.731,8.763 -6.731,10.795 0,2.54 2.667,3.048 4.699,3.429 0.762,0.127 1.524,0.381 2.159,0.508 0.889004,0.127 1.651004,0.889 2.667004,0.889 h 0.254 l -0.127,0.381 c -0.635,2.032 -12.192004,15.113 -13.716004,15.113 -1.524,0 -1.778,-1.397 -2.286,-2.413 -0.127,-0.254 -0.127,-0.508 -0.254,-0.762 -0.127,-0.254 -0.254,-0.508 -0.381,-0.762 -0.254,-0.254 -0.508,-0.508 -1.016,-0.508 -1.27,0 -3.302,1.27 -3.937,2.54 l -5.334,10.414 c -1.143,0.508 -4.953,2.54 -4.953,3.81 z" fill="white"/>
  <path d="m 134.84243,179.83295 c 0,1.27 1.524,1.905 2.54,2.159 0.381,0.127 0.762,0.127 1.143,0.254 h 0.127 l 0.127,0.127 c 0.381,0.762 0.635,1.397 0.889,2.159 1.778,5.207 3.683,8.89 9.652,8.89 7.747,0.127 16.764,-6.604 21.717,-12.446 0.254,-0.254 1.27,-1.397 1.27,-1.778 -0.508,0 -2.667,1.524 -5.334,3.048 -1.397,0.762 -2.667,1.778 -3.81,2.413 -1.27,0.635 -2.286,1.27 -3.048,1.524 l -0.127,-0.381 c 0,0 2.921,-2.159 3.175,-2.413 0.381,-0.254 0.508,-0.508 0.508,-0.635 0,-0.127 0,-0.127 -0.254,-0.254 -0.127,0 -0.381,0 -0.635,0 -0.127,0.127 -0.254,0.127 -0.381,0.254 -0.381,0.127 -0.889,0.254 -1.27,0.508 -0.762,0.508 -1.778,0.762 -1.778,0.762 -0.381,0.127 -0.889,0.254 -1.27,0.381 -0.381,0.127 -0.762,0.254 -1.143,0.381 -2.54,0.889 -5.715,2.286 -8.509,2.286 -2.413,0 -4.953,-1.524 -4.953,-4.191 v -0.127 l 0.127,-0.127 c 0.127,0 0.381,-0.254 0.762,-0.381 0.127,-0.127 0.254,-0.254 0.762,-0.508 0.127,0 0.254,0 0.254,0 0.254,0 1.905,-0.254 1.905,-0.254 4.191,-0.381 14.605,-4.572 18.161,-6.985 1.524,-1.016 2.286,-2.286 2.286,-4.191 0,-1.016 -0.254,-5.08 -1.143,-5.715 -0.508,-0.381 -0.889,-0.635 -1.27,-1.016 -0.381,-0.381 -0.508,-0.762 -0.889,-1.27 v -0.127 c 0,-0.254 -0.381,-1.27 -0.635,-1.397 -0.889,-0.762 -2.032,-2.159 -3.302,-3.175 -1.397,-1.143 -2.794,-2.032 -4.191,-2.032 -1.524,0 -2.921,0.508 -4.318,1.143 l -3.683,1.651 c -2.54,1.143 -7.366,8.128 -8.001,10.668 l -2.032,7.874 -1.016,0.889 -1.016,0.254 c -0.254,0.254 -0.508,0.381 -0.635,0.508 -0.127,0 -0.254,0 -0.254,0.127 -0.508,0 -0.508,0.889 -0.508,1.143 z m 11.176,-5.588 c 0.889,-1.778 1.651,-3.429 3.048,-4.699 l -0.381,0.127 2.921,-2.032 -0.381,0.381 1.143,-0.635 -1.651,1.651 h -0.127 c 0,0 0,0 -0.127,0 l -0.254,0.254 c -0.127,0.127 -0.254,0.254 -0.381,0.381 -0.127,0.127 -0.127,0.254 -0.127,0.254 0.127,0.127 0.127,0.127 0.254,0.127 0.127,0 0.127,0 0.254,-0.127 l 0.127,-0.127 c 1.016,-0.127 2.794,-0.889 4.572,-1.524 1.778,-0.635 3.556,-1.27 4.064,-1.27 h 0.381 l -0.127,0.381 c -0.508,1.397 -11.557,7.112 -13.081,7.112 h -0.254 z" fill="white"/>
  <path d="m 172.30739,108.96695 c 0,3.556 0.254,4.699 2.794,6.858 0.762,0.635 1.651,1.143 2.667,2.032 h 0.127 v 0.127 c 0,0.635 0.127,1.397 0.127,2.032 0.127,4.318 0.127,8.763 0,13.081 -0.127,3.556 -0.508,6.985 -0.635,10.541 -0.254,5.461 -0.127,10.795 -0.635,16.129 -0.889,9.652 -1.27,19.558 -1.27,29.337 0,2.413 0.762,5.461 2.032,7.62 1.016,1.651 4.064,4.191 5.969,4.191 0.889,0 1.778,-0.127 2.286,-0.762 0.889,-1.143 2.159,-4.572 2.667,-6.096 0.254,-0.635 0.381,-1.397 0.762,-2.032 1.778,-2.921 7.747,-11.176 7.874,-14.224 l -0.254,-0.127 c -1.016,1.016 -1.778,2.159 -2.413,3.429 -0.508,1.016 -7.62,8.509 -8.763,9.652 v 0.127 h -0.127 c -0.635,0 -1.397,-1.27 -1.524,-1.778 -2.794,-8.255 -2.921,-16.51 -2.921,-25.146 0,-5.461 0.508,-10.922 0.508,-16.383 0,-2.921 -0.127,-5.842 0,-8.636 0.127,-3.048 0.635,-5.842 1.016,-8.763 0.762,-6.096 1.905,-12.192 2.286,-18.288 l 0.127,-2.032 0.762,5.08 c 0.127,0.508 -0.127,1.016 -0.127,1.524 0,0.635 -0.127,1.143 -0.127,1.651 0,0.127 0,0.254 0.127,0.381 0,0.127 0,0.381 0,0.508 0.127,0.254 0.127,0.635 0.127,0.889 l 0.381,0.508 v 0.127 c 0,5.842 -0.381,11.684 -0.381,17.653 0,0.762 0.127,3.175 1.27,3.175 0.508,0 1.143,-0.762 1.143,-1.27 0,-0.762 -0.254,-1.778 -0.635,-2.54 0,-1.27 0.127,-2.286 0.381,-3.683 0.254,-1.016 0.508,-2.159 0.635,-3.048 0.635,-4.318 1.143,-8.636 1.778,-12.954 0.762,-4.953 1.778,-9.906 1.778,-14.859 0,-3.683001 -0.381,-8.509001 -5.08,-8.509001 -2.032,0 -3.556,0.762 -5.08,1.524 -0.762,0.381 -1.397,0.762 -2.032,1.016 -0.635,0.254 -1.397,0.508 -2.159,0.508 -0.254,0 -0.508,0 -0.762,-0.127 0,0 -0.127,0 -0.254,0 -2.159,0 -2.667,2.413 -2.667,4.191001 0,1.016 -0.635,2.54 -1.016,3.937 -0.381,1.397 -0.762,2.667 -0.762,3.429 z" fill="white"/>
  <path d="m 192.37333,108.71295 c 0,0.127 0,0.254 0.127,0.381 v 0.127 c 0,0.381 0,0.635 0,1.016 0,0.381 0,0.635 0,0.889 v 0.127 c 0.127,0.127 0.127,0.127 0.127,0.254 0.127,0.254 0.254,0.381 0.254,0.508 0.254,0.508 0.508,2.794 0.508,3.429 v 4.191 c 0,0.127 0,0.254 0,0.381 0,0.127 0.127,0.254 0.127,0.254 l 0.127,0.127 c 0.635,2.54 0.889,5.207 1.016,7.874 0.127,2.794 0.127,5.461 0.127,7.874 0,8.382 -0.254,16.764 -0.254,25.146 0,4.064 0.127,8.255 0.254,12.319 0.127,3.81 0.381,7.493 0.381,11.303 0,0.635 -0.254,1.524 -0.254,2.159 v 0.381 l -0.381,-0.127 c -0.254,-0.127 -0.381,-0.254 -0.508,-0.381 -0.127,0 -0.381,0 -0.635,0 -1.016,0 -1.143,1.778 -1.143,2.54 0,1.651 0.889,8.128 3.048,8.128 1.27,0 2.159,-0.635 2.921,-1.651 h 0.254 c 0.762,0.127 1.778,0.635 2.794,1.016 1.143,0.381 2.159,0.635 2.921,0.635 1.397,0 1.524,-2.032 1.524,-3.175 -0.127,-3.429 -1.143,-9.144 -2.413,-12.319 -0.254,-0.635 -0.762,-1.524 -1.016,-2.413 -0.254,-0.889 -0.635,-1.778 -0.635,-2.54 0,-1.524 1.27,-3.302 2.921,-3.302 1.016,0 1.905,0.381 2.667,1.143 1.27,1.27 2.667,4.064 4.064,6.858 1.397,2.794 2.667,5.715 3.429,7.112 3.683,6.858 14.097,17.78 22.225,17.78 0.889,-0.127 2.794,-0.889 2.794,-1.651 0,-0.127 -0.127,-0.254 -0.254,-0.381 h -0.127 v -0.127 c -0.127,-0.381 -0.508,-0.508 -0.889,-0.508 -0.127,0 -0.508,0.127 -0.635,0.254 0,0 -0.127,0 -0.254,0 h -0.635 c -3.937,0 -13.97,-13.843 -15.875,-16.764 -2.667,-4.064 -6.223,-10.541 -6.223,-15.494 0,-1.27 0.635,-2.159 1.016,-3.175 0.127,-0.381 0.381,-0.762 0.508,-1.27 0.127,-0.381 0.254,-0.762 0.254,-1.016 0,-0.254 0,-0.254 0,-0.254 h -0.127 v -0.127 c -0.254,-0.381 -0.635,-0.635 -1.016,-0.762 -0.127,0.127 -0.127,0.127 -0.254,0.127 -0.127,0.127 -0.254,0.127 -0.508,0.254 -0.381,0.127 -0.889,0.254 -1.524,0.508 -1.143,0.381 -2.286,0.508 -2.54,0.635 l -0.381,0.127 v -0.381 c 0,-1.651 6.223,-5.08 7.874,-5.08 0.127,0.127 0.254,0.127 0.508,0.254 0.127,0.127 0.127,0.127 0.254,0.127 2.413,0 3.048,-2.286 3.429,-4.191 0.127,-0.508 0.254,-1.016 0.508,-1.397 0.508,-0.762 1.016,-1.27 1.016,-2.032 0.127,-3.048 -3.302,-7.493 -6.477,-7.493 -2.794,0 -10.287,5.588 -10.287,8.382 -0.127,0.381 0.127,0.635 0.381,0.635 0.381,0 2.794,-0.508 3.175,-0.635 l 0.381,-0.127 v 0.381 c 0,0.889 -1.397,2.667 -2.794,4.318 -1.397,1.651 -3.048,3.048 -3.429,3.556 -0.762,0.889 -1.397,1.778 -1.905,2.667 -0.508,1.016 -0.889,1.905 -1.651,3.048 l -0.508,0.762 0.127,-0.889 c 0.635,-4.826 -0.254,-9.652 -0.254,-14.478 v -17.526 c 0,-3.556 0.127,-7.112 0.381,-10.668 h 0.508 l 0.508,5.588 c 0,0.508 0,2.032 0.254,3.429 0.127,0.635 0.508,2.54 1.27,2.54 l 0.127,-0.381 c 1.016,-3.048 1.143,-5.969 1.143,-9.144 0,-3.302 0.635,-6.858 2.159,-9.906 0.254,-0.508 0.508,-1.016 0.635,-1.397 0.127,-0.127 0.127,-0.254 0.127,-0.381 0.127,-0.127 0.127,-0.127 0.127,-0.254 0,-0.508 -0.254,-0.889 -0.254,-1.397 0,-0.254 -0.127,-0.508 -0.127,-0.889 0,-0.254 -0.127,-0.508 -0.127,-0.762 0.127,-1.651 0.508,-2.921 1.016,-4.191 0.254,-0.635 0.635,-1.27 0.762,-1.905 0.127,-0.635 0.254,-1.397 0.254,-2.032 0,-1.524 -1.524,-2.413 -3.048,-2.413 -0.762,0 -1.524,0.508 -2.286,0.762 -0.381,0.127 -0.762,0.381 -1.143,0.508 -0.508,0.127 -0.889,0.254 -1.397,0.254 -0.254,0 -0.635,0 -1.016,-0.127 -0.635,-0.254 -3.429,-0.762 -3.81,-0.762 -1.905,0 -4.445,2.794 -4.445,4.572 0,0.254 0,0.381 0.127,0.635 z" fill="white"/>
  <path d="m 228.82231,175.89595 0.889,-1.27 -0.127,1.016 c -0.254,1.651 -0.508,3.556 -0.508,5.207 0,5.08 1.016,8.763 4.572,12.319 0.381,0.381 0.508,0.635 0.889,0.889 0.635,0.508 1.143,0.889 2.032,0.889 2.921,0.127 5.334,-4.191 7.493,-8.636 1.016,-2.159 1.905,-4.445 2.667,-6.096 0.381,-0.762 0.635,-1.524 1.016,-2.032 0.381,-0.381 0.762,-0.889 1.143,-0.889 h 0.254 v 0.254 c 0,3.429 0.127,6.731 0.635,10.033 0.254,1.905 1.524,3.556 2.54,5.08 0.381,0.508 0.762,1.016 1.016,1.651 0.254,0.762 1.524,3.81 2.413,3.81 0.254,0 0.381,-0.127 0.762,-0.381 0,-1.27 -0.889,-4.191 -1.27,-5.461 -0.889,-2.667 -1.016,-5.334 -0.889,-8.128 l 0.254,-5.969 h 0.381 c 0,0.127 0.127,0.127 0.381,0.254 0.127,0 0.127,0 0.254,0.127 0.254,0 0.508,-0.254 0.635,-0.635 0.508,-1.524 0.889,-3.048 1.27,-4.699 0.254,-1.143 0.635,-2.286 1.143,-3.429 0.508,-1.016 1.524,-2.921 2.413,-4.826 0.889,-1.905 1.651,-3.81 1.651,-4.572 0,-1.905 -1.27,-3.81 -3.175,-4.572 -1.778,-0.762 -8.128,-3.175 -9.779,-3.175 -0.127,0 -0.381,0.127 -0.635,0.254 v 0.127 l -0.127,0.127 c -1.905,1.397 -2.667,7.366 -2.667,9.906 0,0.635 0,0.889 0.254,1.524 h 0.254 c 0.381,-0.635 1.27,-3.683 1.397,-4.445 l 0.508,-1.778 v 1.778 c 0,1.905 0.127,3.683 0.127,5.588 0,2.032 -1.016,6.477 -2.413,8.128 l -3.302,3.683 -0.508,-0.254 c -0.254,0.127 -2.032,1.651 -3.937,3.556 -1.905,1.905 -3.556,3.81 -4.191,4.445 l -0.381,0.381 v -0.508 c 0,-0.508 -0.254,-1.016 -0.254,-1.397 0,-0.508 -0.254,-1.143 -0.254,-1.524 0,-6.223 2.159,-16.383 6.858,-20.828 0,-0.254 0.127,-0.381 0.127,-0.381 0.127,-0.127 0.127,-0.254 0.127,-0.381 0.127,-0.127 0.254,-0.381 0.127,-0.635 v -0.127 l 0.127,-0.127 c 0.127,-0.127 0.127,-0.508 0.127,-0.635 0,-0.889 0,-2.159 -0.254,-2.921 -0.254,-0.889 -0.762,-1.524 -1.778,-1.524 0,0 -0.127,0.127 -0.254,0.127 -0.127,0 -0.381,0.127 -0.635,0.254 -0.254,0 -0.508,0.127 -0.762,0.127 0,0.127 -0.127,0.127 -0.381,0.127 -1.778,0 -2.794,-0.889 -3.302,-1.905 -0.254,-0.508 -0.508,-0.889 -0.762,-1.27 -0.381,-0.381 -0.635,-0.508 -1.016,-0.508 -3.937,0 -3.937,18.923 -3.937,22.225 0,0.381 0.381,1.524 0.762,2.032 z m 1.016,-8.382 c 0.127,-1.397 0.254,-2.921 0.762,-4.064 l 0.508,-1.27 v 1.27 c 0,0.127 0,0.254 0,0.381 0,0.127 0,0.254 0,0.381 l -0.635,3.683 c -0.127,0.762 -0.127,1.397 -0.254,2.032 -0.127,0.635 -0.127,1.397 -0.508,2.032 l -0.381,-0.127 c 0.254,-1.27 0.254,-2.794 0.508,-4.318 z" fill="white"/>
  <path d="m 265.77915,108.96695 c 0,3.556 0.254,4.699 2.794,6.858 0.762,0.635 1.651,1.143 2.667,2.032 h 0.127 v 0.127 c 0,0.635 0.127,1.397 0.127,2.032 0.127,4.318 0.127,8.763 0,13.081 -0.127,3.556 -0.508,6.985 -0.635,10.541 -0.254,5.461 -0.127,10.795 -0.635,16.129 -0.889,9.652 -1.27,19.558 -1.27,29.337 0,2.413 0.762,5.461 2.032,7.62 1.016,1.651 4.064,4.191 5.969,4.191 0.889,0 1.778,-0.127 2.286,-0.762 0.889,-1.143 2.159,-4.572 2.667,-6.096 0.254,-0.635 0.381,-1.397 0.762,-2.032 1.778,-2.921 7.747,-11.176 7.874,-14.224 l -0.254,-0.127 c -1.016,1.016 -1.778,2.159 -2.413,3.429 -0.508,1.016 -7.62,8.509 -8.763,9.652 v 0.127 h -0.127 c -0.635,0 -1.397,-1.27 -1.524,-1.778 -2.794,-8.255 -2.921,-16.51 -2.921,-25.146 0,-5.461 0.508,-10.922 0.508,-16.383 0,-2.921 -0.127,-5.842 0,-8.636 0.127,-3.048 0.635,-5.842 1.016,-8.763 0.762,-6.096 1.905,-12.192 2.286,-18.288 l 0.127,-2.032 0.762,5.08 c 0.127,0.508 -0.127,1.016 -0.127,1.524 0,0.635 -0.127,1.143 -0.127,1.651 0,0.127 0,0.254 0.127,0.381 0,0.127 0,0.381 0,0.508 0.127,0.254 0.127,0.635 0.127,0.889 l 0.381,0.508 v 0.127 c 0,5.842 -0.381,11.684 -0.381,17.653 0,0.762 0.127,3.175 1.27,3.175 0.508,0 1.143,-0.762 1.143,-1.27 0,-0.762 -0.254,-1.778 -0.635,-2.54 0,-1.27 0.127,-2.286 0.381,-3.683 0.254,-1.016 0.508,-2.159 0.635,-3.048 0.635,-4.318 1.143,-8.636 1.778,-12.954 0.762,-4.953 1.778,-9.906 1.778,-14.859 0,-3.683001 -0.381,-8.509001 -5.08,-8.509001 -2.032,0 -3.556,0.762 -5.08,1.524 -0.762,0.381 -1.397,0.762 -2.032,1.016 -0.635,0.254 -1.397,0.508 -2.159,0.508 -0.254,0 -0.508,0 -0.762,-0.127 0,0 -0.127,0 -0.254,0 -2.159,0 -2.667,2.413 -2.667,4.191001 0,1.016 -0.635,2.54 -1.016,3.937 -0.381,1.397 -0.762,2.667 -0.762,3.429 z" fill="white"/>
  <path d="m 289.52809,168.65695 c 0.762,-0.508 2.159,-2.794 2.54,-3.683 l 0.508,0.127 c -0.635,1.524 -3.048,8.001 -3.048,9.144 0,2.159 0.635,9.271 1.651,10.668 l 1.397,1.905 c 0,2.286 4.826,5.08 6.985,5.08 9.017,0 17.145,-15.24 17.145,-23.368 0,-1.27 0,-5.08 -1.397,-5.715 -0.254,0.381 -0.508,1.143 -0.508,1.524 v 1.651 l -0.508,-1.524 c -1.27,-3.683 -3.175,-9.144 -7.62,-9.144 -0.127,0 -0.127,0 -0.127,0.254 0.381,0.381 0.762,0.762 1.143,1.143 1.905,1.905 2.921,3.302 2.921,6.096 v 0.889 c -0.127,0 -0.254,0.254 -0.254,0.762 0,0.508 0,1.143 0,1.778 -0.127,1.524 0,3.429 -0.254,5.461 -0.508,4.064 -1.651,9.144 -6.35,12.319 -0.762,0.508 -2.794,1.524 -3.683,1.524 -3.937,0.127 -5.969,-2.032 -5.969,-5.969 l 0.127,-3.175 c 0.254,-0.635 0.635,-1.397 1.016,-2.032 0.381,-0.635 0.762,-1.397 1.016,-1.905 l 0.889,-1.651 -1.016,5.334 c 0,0.127 0,0.254 0.127,0.381 l 4.699,-5.334 c 1.143,-1.27 2.667,-2.413 4.064,-3.429 0.635,-0.508 1.397,-1.016 2.032,-1.524 0.762,-0.635 2.413,-1.905 2.413,-2.921 0,-1.778 -0.889,-2.54 -1.905,-3.175 -0.635,-0.381 -1.27,-0.635 -1.778,-1.016 -0.635,-0.381 -1.27,-0.762 -1.778,-1.397 -0.381,-0.508 -0.635,-1.016 -0.889,-1.524 -0.254,-0.508 -0.381,-0.889 -0.635,-1.27 -0.508,-0.635 -1.016,-1.143 -2.413,-1.143 -3.302,0 -9.144,10.414 -10.287,13.716 -0.127,0.127 -0.127,0.254 -0.254,0.381 0,0.127 0,0.127 0,0.254 0,0.254 0,0.508 0,0.508 z" fill="white"/>
  <path d="m 318.35695,156.33795 c 1.524,1.524 1.905,6.858 1.905,8.89 0,2.921 0.127,5.715 0.127,8.636 0,0.254 0,0.508 0.127,0.889 0.127,0.508 0.381,1.397 0.381,1.905 0.127,0.381 0.254,0.508 0.381,0.508 0,0 0.127,0 0.127,-0.254 0.127,-0.127 0.254,-0.381 0.254,-0.635 0.127,-0.508 0.254,-1.143 0.254,-1.397 l 0.635,-8.001 0.381,0.381 c 0.381,0.381 0.381,0.762 0.381,1.143 -0.127,0.127 0,0.254 0,0.254 0.127,0.635 0.381,1.27 0.635,1.778 0.762,1.397 0.635,5.207 0.635,6.858 0,2.413 0,4.699 -0.508,7.112 -0.381,1.651 -0.635,3.175 -0.635,4.826 0,2.159 3.429,3.81 5.461,3.81 0.889,0 2.286,-0.127 2.794,-0.635 1.27,-1.27 2.286,-8.763 2.286,-10.795 0,-0.381 -0.127,-0.762 -0.254,-1.27 0,-0.127 0,-0.381 -0.127,-0.508 0,-0.254 0,-0.508 0,-0.635 0,-3.429 2.032,-9.525 4.572,-12.065 0.127,-0.127 0.381,-0.381 0.635,-0.381 h 0.254 l 0.762,3.302 c 0,0 0,0.127 0,0.254 0,0 0,0.127 0,0.254 0,0.127 -0.127,0.381 -0.127,0.635 0,0.508 0,1.016 0,1.143 0,1.016 0,4.191 0.762,4.953 0.381,0 0.635,-0.127 0.762,-0.508 0.127,-0.381 0.127,-0.889 0.127,-1.524 0,-0.762 0,-1.397 0,-2.159 0,-0.635 0,-1.397 0.127,-1.905 l 0.508,-1.778 v 12.827 c 0,2.032 -0.635,3.937 -0.635,5.969 0,0.381 0.127,0.762 0.127,1.143 l 0.254,0.254 v 0.127 c 0.254,1.651 0.762,2.921 2.413,3.302 0.127,0 0.635,0.127 1.143,0.254 0.127,0 0.381,0 0.508,0.127 0.127,0 0.254,0 0.381,0 1.27,0 3.048,-0.127 3.81,-1.143 0.889,-1.27 2.413,-4.064 2.667,-5.588 0.127,-0.635 0.381,-1.397 0.762,-1.905 l 4.191,-6.604 c 0.381,-0.508 3.175,-5.334 3.175,-5.715 0,0 0,-0.127 0,-0.254 0,0 -0.127,0 -0.254,0.127 h -0.127 c -0.254,0 -1.016,0.254 -1.016,0.381 -2.921,4.191 -6.223,8.001 -10.033,11.43 v 0.127 h -0.127 c -1.397,0 -2.032,-1.524 -2.159,-2.794 -0.127,-1.397 -0.127,-2.921 -0.127,-3.429 0,-2.159 0.635,-10.287 2.032,-11.811 0.635,-0.635 2.54,-2.794 2.54,-3.429 0,-1.397 -8.128,-7.239 -9.525,-7.239 -0.635,0 -1.651,0.508 -2.286,0.889 h -0.254 c -0.381,-0.254 -1.651,-0.381 -2.159,-0.381 -1.524,0 -2.794,1.778 -2.794,3.175 0,2.159 -0.889,5.334 -2.159,8.382 -1.27,3.048 -2.667,5.969 -3.556,8.128 l -0.254,0.635 -0.254,-0.762 c 0,0 -0.127,-0.381 -0.254,-0.762 0,-4.699 0.508,-8.382 2.032,-12.827 0.127,-0.381 0.508,-0.889 0.635,-1.27 0.127,-0.381 0.254,-0.889 0.254,-1.27 0,-2.667 -3.175,-4.953 -5.715,-5.461 -0.127,0 -0.762,-0.254 -1.27,-0.254 -0.381,0 -0.635,-0.127 -0.762,-0.127 -0.127,0 -0.254,0 -0.254,0 -0.127,-0.127 -0.254,-0.127 -0.254,-0.127 -0.508,-0.127 -1.016,-0.635 -1.397,-1.016 -0.381,-0.381 -0.762,-0.635 -1.397,-0.635 -1.143,0 -2.54,0.762 -2.54,2.032 0,0.762 0.508,1.905 1.016,2.413 z" fill="white"/>
        <animateTransform
      attributeName="transform"
      type="translate"
      values="
        25,25;
        450,25;
        650,200;
        25,200;
        25,25"
      dur="8s"
      repeatCount="indefinite" />
	  
	  <animateTransform
      additive="sum"
      attributeName="transform"
      type="scale"
      values="1;1.50;1;0.45;1"
      dur="6s"
      repeatCount="indefinite"/>
	  </g>
  </g>
</svg>
